<svg width="34" height="53" viewBox="0 0 34 53" fill="none" xmlns="http://www.w3.org/2000/svg">

<g filter="url(#filter0_d_908_3096)">

<path d="M30.2547 19.0494L16.4913 3.6668C15.915 3.02262 16.3722 2 17.2366 2L31 2.00001C31.5523 2.00001 32 2.44773 32 3.00001L32 18.3826C32 19.3006 30.8668 19.7335 30.2547 19.0494Z" fill="#F9BE00"/>

<rect x="2" y="2" width="13" height="49" rx="3" fill="white"/>

<path d="M18 42C18 40.3431 19.3431 39 21 39H27C28.6569 39 30 40.3431 30 42V48C30 49.6569 28.6569 51 27 51H21C19.3431 51 18 49.6569 18 48V42Z" fill="white"/>

<circle cx="24" cy="32" r="6" fill="white"/>

</g>

<defs>

<filter id="filter0_d_908_3096" x="0" y="0" width="34" height="53" filterUnits="userSpaceOnUse" color-interpolation-filters="sRGB">

<feFlood flood-opacity="0" result="BackgroundImageFix"/>

<feColorMatrix in="SourceAlpha" type="matrix" values="0 0 0 0 0 0 0 0 0 0 0 0 0 0 0 0 0 0 127 0" result="hardAlpha"/>

<feOffset/>

<feGaussianBlur stdDeviation="1"/>

<feComposite in2="hardAlpha" operator="out"/>

<feColorMatrix type="matrix" values="0 0 0 0 0 0 0 0 0 0 0 0 0 0 0 0 0 0 0.1 0"/>

<feBlend mode="normal" in2="BackgroundImageFix" result="effect1_dropShadow_908_3096"/>

<feBlend mode="normal" in="SourceGraphic" in2="effect1_dropShadow_908_3096" result="shape"/>

</filter>

</defs>

</svg>
